<svg xmlns="http://www.w3.org/2000/svg" xmlns:xlink="http://www.w3.org/1999/xlink"
  class="svg u_1244217168" data-icon-custom="true" data-icon-name="element_01.svg" fill="#fd2dff"
  viewBox="0 0 544.36 223.8">
  <defs>
    <linearGradient id="a" x1="111.29" x2="111.29" y1="79.77" y2="210.88"
      gradientUnits="userSpaceOnUse">
      <stop offset=".1" stop-color="#ff4a1d" />
      <stop offset=".41" stop-color="#c700b6" />
      <stop offset=".82" stop-color="#1391ff" />
    </linearGradient>
    <linearGradient xlink:href="#a" id="b" x1="142.42" x2="142.42" y1="79.77" y2="210.88" />
  </defs>
  <path
    d="M479.61 74.01c-1.1-.26-2.24-.32-3.39-.14 1.26-.84 2.82-.86 4.25-1.1.76-.1 1.49-.26 2.21-.43l-4.03-2.04c4.49-.3 7.48-.47 9.45-.58l-1.8-1.17c3.35-1.07 5.73-1.43 7.37-1.49-.78-1.1-2.05-1.73-4.85-2.61 2.92-.08 3.33-.4 6.77 1.1-.98-1.05-2.24-1.87-3.75-2.41 3.33-.73 6.67-.74 9.56.16-3.82-2.81 3.68-2.15 6.2-3.05-.52-.09-1.04-.15-1.56-.2 1.63-.76 3.46-1.28 5.44-1.51-2.5-.81-5.38-1.09-7.77-1.46 3.34-1.23 7.52-1.47 11.84-.26-1.93-1.66-4.15-2.96-6.54-3.84 3.35-.49 7.26-.02 11.17 1.63l.2-.1c-.91-.49-1.85-.92-2.83-1.28 1.31-.19 2.71-.24 4.16-.12-10.23-4.86-22.66-4.87-32.89.02-10.49 5.01-18.42 15.07-20.86 26.43L479.59 74Z"
    style="stroke-width:0" />
  <path
    d="M478.19 83c-.1-.98-.35-1.94-.78-2.86 1.16.98 1.61 2.47 2.24 3.77.13.31.27.6.42.89l.71-3.81 2.81 7.98.82-4.37 2.97 8.43c.48-2.22.75-4.49.8-6.7.72 2.25 1.1 5.31.95 8.91l.03.04 1.39-3.2 1.72 4.87c.6-1.69.95-3.47 1.02-5.29 1.4 2.72 2.16 6.08 1.94 9.71.94-3.09 1.48-6.42 1.55-9.61.96 3 1.31 7.48.63 12.74l.02.02c.85-3.44 1.54-7.16 1.95-10.64.09 2.72.72 9.11 2.57 15.3 1.73-5.75.65-7.23-.16-9.67 2.02 2.74 2.78 8.92 2.93 13.17l.1.12c1.05-2.31 1.68-4.81 1.85-7.35 1.4 3.08 2.45 12.17 2.45 12.17.2-.95.33-1.91.39-2.87.28.6.52 1.24.74 1.9 1.44-10.88-2.05-22.34-9.37-30.53-7.75-8.67-19.62-13.47-31.21-12.63l8.5 9.5Z"
    style="stroke-width:0" />
  <path
    d="M460.02 74.21c.88-.45 1.83-.75 2.82-.89-1.45-.45-2.95-.03-4.39.15-.33.05-.66.09-.98.13l2.82-2.65-8.23 1.94 3.24-3.05-8.7 2.05c1.61-1.6 3.38-3.05 5.21-4.29-2.28.61-5.06 1.94-8.02 4.01h-.05l1.94-2.9-5.03 1.18c1.09-1.42 2.41-2.68 3.9-3.72-3.04.29-6.28 1.47-9.22 3.61 2.1-2.46 4.61-4.71 7.25-6.49-3.05.81-7.01 2.93-11.06 6.35h-.02c2.43-2.58 5.2-5.16 7.91-7.39-2.34 1.39-8.06 4.31-14.27 6.1 3.91-4.56 5.74-4.45 8.23-5.09-3.4-.22-9.01 2.48-12.67 4.64l-.16-.02c1.38-2.13 3.14-4.01 5.19-5.53-3.35.48-11.57 4.5-11.57 4.5.69-.68 1.43-1.3 2.2-1.88-.66.09-1.32.23-2 .41 8.38-7.08 19.91-10.34 30.76-8.6 11.48 1.84 21.93 9.25 27.48 19.46l-12.59-2.02Z"
    style="stroke-width:0" />
  <circle cx="469.61" cy="75.55" r="4.18" style="stroke-width:0"
    transform="rotate(-33.23 469.60816254 75.55001178)" />
  <path
    d="M461.2 69.83c1.12.14 2.21.49 3.22 1.05-.89-1.23-2.34-1.79-3.6-2.52-.68-.36-1.31-.76-1.92-1.18l4.49-.5c-4.11-1.85-6.84-3.06-8.65-3.85l2.1-.47c-2.76-2.18-4.87-3.35-6.38-3.97 1.11-.76 2.53-.9 5.45-.75-2.71-1.1-2.98-1.54-6.73-1.34 1.28-.64 2.75-.97 4.36-.95-2.86-1.85-5.99-3.03-9.01-3.19 4.57-1.29-2.7-3.31-4.74-5.02.52.1 1.03.22 1.53.36-1.26-1.28-2.8-2.41-4.56-3.32 2.63.12 5.42.86 7.79 1.35-2.7-2.32-6.53-4.01-11-4.39 2.38-.88 4.92-1.33 7.47-1.31-2.96-1.63-6.79-2.56-11.03-2.39l-.16-.16c1.02-.14 2.06-.21 3.09-.21-1.16-.64-2.46-1.17-3.86-1.57 11.29-.97 22.93 3.37 30.8 11.53 8.07 8.37 11.98 20.57 10.28 32.07l-8.95-9.28Z"
    style="stroke-width:0" />
  <path
    d="M460.47 81.69c.51-.84 1.16-1.6 1.93-2.24-1.46.38-2.52 1.53-3.65 2.44-.25.22-.51.43-.77.62l1-3.74-5.98 5.99 1.15-4.3-6.31 6.33c.53-2.21 1.26-4.37 2.17-6.39-1.62 1.72-3.28 4.32-4.7 7.63l-.05.02.13-3.48-3.65 3.66c.18-1.78.64-3.54 1.35-5.21-2.44 1.85-4.57 4.56-5.93 7.92.49-3.2 1.43-6.43 2.74-9.34-2.16 2.3-4.41 6.19-6.06 11.22h-.02c.71-3.46 1.7-7.11 2.83-10.43-1.25 2.41-4.58 7.91-8.92 12.7.92-5.93 2.53-6.8 4.31-8.66-3.01 1.6-6.35 6.85-8.33 10.62l-.14.06c.05-2.54.56-5.07 1.5-7.44-2.59 2.17-7.46 9.93-7.46 9.93.23-.94.53-1.86.88-2.76-.51.43-1.01.89-1.48 1.4 3.4-10.44 11.48-19.28 21.62-23.51 10.73-4.48 23.51-3.69 33.61 2.06l-11.76 4.91Z"
    style="stroke-width:0" />
  <path
    d="M468.4 82.65c.75-.84 1.35-1.82 1.74-2.91.14 1.51-.58 2.89-1.05 4.26-.28.72-.48 1.43-.67 2.15l3.71-2.58c-1.87 4.1-3.13 6.8-3.98 8.59l1.89-1.03c-.65 3.45-1.46 5.72-2.19 7.19 1.34-.16 2.5-.99 4.6-3.03-1.32 2.61-1.23 3.12-4.19 5.43 1.39-.36 2.71-1.08 3.9-2.15-.94 3.28-2.52 6.22-4.68 8.33 4.29-2.03.14 4.27-.26 6.9.32-.41.63-.84.92-1.28-.11 1.79-.52 3.66-1.25 5.5 1.9-1.82 3.52-4.21 4.97-6.14-.51 3.52-2.28 7.31-5.39 10.54 2.37-.9 4.58-2.24 6.48-3.93-1.16 3.18-3.43 6.4-6.74 9.06v.23c.85-.56 1.68-1.19 2.46-1.88-.46 1.25-1.08 2.5-1.87 3.72 9.14-6.69 15.05-17.63 15.6-28.95.57-11.61-4.51-23.37-13.36-30.91l-.63 12.87Z"
    style="stroke-width:0" />
  <path
    d="M476.79 66.89c-1.03.45-1.98 1.1-2.79 1.92.5-1.43 1.73-2.38 2.73-3.44.55-.54 1.04-1.1 1.51-1.68l-4.45.8c3.41-2.94 5.68-4.88 7.2-6.15l-2.15.15c2.02-2.87 3.71-4.59 4.99-5.63-1.28-.41-2.68-.14-5.44.84 2.29-1.82 2.42-2.33 6.07-3.2-1.41-.25-2.91-.14-4.44.33 2.22-2.59 4.88-4.61 7.73-5.63-4.75.06 1.64-3.94 3.11-6.16-.47.24-.92.5-1.37.79.84-1.58 1.99-3.11 3.43-4.48-2.49.86-4.95 2.37-7.08 3.51 1.93-2.99 5.11-5.7 9.29-7.34-2.53-.16-5.09.13-7.53.87 2.38-2.41 5.78-4.39 9.9-5.43l.1-.2c-1.02.15-2.03.38-3.03.68.93-.94 2.02-1.82 3.25-2.6-11.09 2.28-21.02 9.76-26.24 19.82-5.35 10.32-5.63 23.12-.73 33.67l5.93-11.44Z"
    style="stroke-width:0" />
  <path
    d="M481.06 79.86c-.63-.75-1.39-1.4-2.26-1.91 1.51.15 2.72 1.12 3.99 1.84.28.18.57.34.86.5l-1.57-3.54 6.84 4.98-1.8-4.07 7.22 5.27c-.86-2.1-1.93-4.12-3.13-5.97 1.86 1.44 3.91 3.76 5.84 6.8h.05l-.67-3.41 4.17 3.04c-.46-1.73-1.18-3.4-2.15-4.94 2.69 1.45 5.22 3.79 7.1 6.9-.98-3.08-2.42-6.13-4.16-8.8 2.49 1.93 5.32 5.42 7.73 10.14h.02c-1.24-3.31-2.79-6.76-4.42-9.87 1.61 2.19 5.76 7.1 10.78 11.15-1.83-5.72-3.56-6.32-5.61-7.88 3.22 1.11 7.34 5.78 9.88 9.19l.15.04c-.45-2.5-1.34-4.92-2.64-7.11 2.9 1.74 8.92 8.64 8.92 8.64-.37-.89-.81-1.76-1.3-2.59.57.34 1.13.73 1.68 1.15-4.98-9.78-14.34-17.26-25.01-19.86-11.29-2.75-23.8.01-32.88 7.27l12.39 3.02Z"
    style="stroke-width:0" />
  <path
    d="M449.38 216.35h10.38c-4-27.98-3.72-71.6.72-98.94.05-.29.09-.59.15-.88.1-.59.2-1.19.3-1.78.12-.72.25-1.44.38-2.15 1.79-9.88 4.12-19.65 7-29.26.07-.3.15-.59.25-.88.04-.14.09-.29.14-.43.15-.56.33-1.14.52-1.7.03-.14.07-.26.12-.4.02-.07.03-.13.06-.2.04-.12.08-.23.12-.35.04-.19.11-.39.18-.58 0-.02 0-.04.01-.06 0-.02 0-.04.02-.06.04-.15.1-.29.15-.43.05-.19.11-.38.17-.56.04-.13.09-.27.13-.4 0-.02.02-.05.02-.07.02-.07.04-.14.07-.21.05-.17.11-.34.17-.51.06-.19.12-.38.19-.57s.06-.17.06-.17l-.15.12-.03.03-.02.02-.48.39-.59.47c-.07.06-.15.12-.21.18l-.02.02c-.18.13-.35.27-.51.41-.03.02-.06.05-.09.07-.03.02-.05.04-.07.06h-.01c-.3.23-.6.47-.88.71-.09.08-.18.17-.27.23-.01.03-.03.07-.03.1-.04.1-.07.2-.11.3 0 .02-.01.04-.02.07v.03c-.25.69-.48 1.37-.7 2.06-.04.1-.07.19-.1.28-3.16 9.3-6.12 18.63-8.7 28.11-.42 1.55-.83 3.1-1.24 4.66-.06.24-.12.47-.18.71-.12.46-.23.92-.35 1.38-.69 2.75-1.35 5.52-1.96 8.3-.27 1.22-.53 2.45-.79 3.68-.02.11-.04.22-.07.33-.24 1.18-.48 2.36-.71 3.55-4.14 21.51-5.77 59.58-2.98 84.31ZM121.83 106.41c.6-.37 1.27-.63 1.98-.74-.91-.25-1.84.04-2.74.17-.47.09-.94.14-1.4.17l2-1.99c-2.73.7-4.53 1.17-5.72 1.49l.84-1.05c-2.19.01-3.68.27-4.66.55.25-.8.88-1.43 2.37-2.49-1.75.52-2.06.41-3.8 1.97.38-.81.96-1.54 1.76-2.16-2.12.21-4.1.86-5.64 1.96 1.72-2.41-2.61-.56-4.27-.6.29-.15.59-.29.89-.42-1.11-.13-2.31-.09-3.52.16 1.33-.97 2.98-1.69 4.33-2.38-2.22-.08-4.75.59-7.08 2.15.82-1.36 1.89-2.57 3.14-3.55-2.08.36-4.31 1.4-6.32 3.14l-.14-.02c.44-.47.92-.91 1.43-1.31-.82.14-1.65.39-2.49.74 5.13-4.88 12.5-7.3 19.53-6.39 7.2.94 13.87 5.36 17.52 11.64l-7.98-1.04Z"
    style="stroke-width:0" />
  <path
    d="M137.24 109.17c-.43-.56-.97-1.03-1.59-1.4.94.09 1.71.69 2.5 1.13.41.25.83.46 1.25.66l-1.16-2.57c2.3 1.62 3.82 2.7 4.82 3.42l-.42-1.28c2.05.79 3.35 1.55 4.17 2.16.05-.84-.32-1.65-1.33-3.17 1.45 1.11 1.78 1.11 2.86 3.19-.06-.89-.36-1.79-.88-2.64 1.9.95 3.53 2.25 4.58 3.83-.76-2.87 2.64.4 4.21.95-.22-.25-.45-.48-.68-.71 1.09.27 2.19.73 3.24 1.39-.9-1.38-2.19-2.64-3.2-3.75 2.11.71 4.23 2.23 5.86 4.51-.29-1.56-.86-3.07-1.68-4.43 1.82 1.07 3.54 2.83 4.8 5.17l.14.03c-.25-.6-.54-1.17-.87-1.73.71.42 1.41.95 2.07 1.57-3.07-6.37-9.11-11.25-16-12.88-7.07-1.67-14.87.11-20.51 4.68l7.83 1.85Z"
    style="stroke-width:0" />
  <path
    d="M128.3 114.92c-.13-.6-.16-1.22-.09-1.85-.5.8-.48 1.78-.61 2.67-.02.21-.05.41-.08.61l-1.15-2.13-.14 5.28-1.33-2.44-.15 5.58c-.71-1.23-1.31-2.52-1.76-3.83 0 1.47.37 3.37 1.14 5.48v.03l-1.45-1.63-.08 3.23c-.68-.89-1.23-1.88-1.62-2.95-.31 1.88-.11 4.03.71 6.14-1.15-1.66-2.11-3.53-2.77-5.41 0 1.97.66 4.7 2.07 7.69-1.17-1.87-2.29-3.95-3.2-5.94.47 1.63 1.32 5.55 1.41 9.59-2.13-3.08-1.77-4.17-1.76-5.78-.68 2.02.06 5.84.79 8.39l-.04.09c-1.07-1.17-1.92-2.54-2.51-4.02-.24 2.1.88 7.71.88 7.71-.3-.52-.56-1.07-.79-1.63-.05.41-.07.84-.07 1.27-2.94-6.19-3.08-13.67-.3-19.95 2.94-6.64 9.08-11.78 16.13-13.5l-3.22 7.28Z"
    style="stroke-width:0" />
  <path
    d="M124.17 112.79c.2-.58.49-1.13.88-1.63-.84.43-1.33 1.27-1.9 1.98-.12.17-.25.33-.38.48l.1-2.42-2.84 4.46.12-2.78-3 4.71c.02-1.42.18-2.84.46-4.19-.75 1.26-1.42 3.08-1.84 5.29l-.03.02-.39-2.14-1.73 2.72c-.13-1.11-.09-2.25.12-3.36-1.24 1.46-2.17 3.39-2.55 5.63-.13-2.02 0-4.12.41-6.07-1.01 1.69-1.86 4.37-2.18 7.66h-.01c-.03-2.2.08-4.56.32-6.74-.44 1.64-1.73 5.44-3.73 8.95-.24-3.74.63-4.49 1.46-5.86-1.62 1.38-2.95 5.03-3.65 7.6l-.08.06c-.31-1.56-.34-3.16-.09-4.74-1.29 1.67-3.21 7.06-3.21 7.06.01-.6.07-1.21.17-1.8-.25.33-.49.68-.72 1.05.66-6.82 4.4-13.31 10.01-17.26 5.94-4.18 13.84-5.42 20.78-3.27l-6.51 4.58Z"
    style="stroke-width:0" />
  <path
    d="M134.2 113.12c-.13-.69-.39-1.36-.78-1.97.8.51 1.2 1.39 1.71 2.15.25.41.52.79.81 1.15l.14-2.82c1.31 2.49 2.17 4.15 2.73 5.25l.21-1.33c1.46 1.64 2.27 2.91 2.72 3.83.43-.72.46-1.61.26-3.43.79 1.65 1.07 1.8 1.09 4.14.35-.83.5-1.75.42-2.75 1.26 1.71 2.12 3.62 2.33 5.5.63-2.9 2.16 1.56 3.31 2.76-.08-.32-.18-.63-.29-.94.84.74 1.61 1.65 2.24 2.72-.17-1.63-.74-3.35-1.14-4.8 1.55 1.59 2.75 3.92 3.15 6.69.45-1.52.64-3.12.53-4.71 1.13 1.79 1.86 4.14 1.91 6.79l.11.09c.05-.64.06-1.29.01-1.94.44.7.82 1.49 1.13 2.34.18-7.07-2.97-14.17-8.36-18.77-5.52-4.71-13.28-6.69-20.38-5.2l6.12 5.23Z"
    style="stroke-width:0" />
  <path
    d="M129.81 114.33c.37-.6.62-1.27.74-1.98.25.91-.03 1.84-.17 2.74-.09.47-.14.94-.17 1.4l1.99-2c-.69 2.73-1.16 4.53-1.48 5.73l1.04-.85c0 2.19-.26 3.68-.54 4.66.8-.25 1.42-.89 2.49-2.38-.52 1.75-.4 2.06-1.96 3.81.81-.38 1.54-.97 2.16-1.76-.21 2.12-.85 4.11-1.94 5.65 2.41-1.73.57 2.6.61 4.27.15-.29.29-.59.42-.89.14 1.11.09 2.31-.15 3.52.97-1.33 1.69-2.98 2.37-4.33.08 2.22-.58 4.75-2.13 7.09 1.35-.82 2.56-1.89 3.54-3.14-.36 2.08-1.39 4.32-3.12 6.32l.02.14c.47-.44.9-.92 1.3-1.43-.14.82-.38 1.66-.73 2.5 4.86-5.14 7.27-12.52 6.34-19.54-.95-7.2-5.4-13.85-11.68-17.49l1.06 7.98Z"
    style="stroke-width:0" />
  <path
    d="M134.76 103.56c-.61.07-1.21.24-1.78.52.6-.73 1.52-1.04 2.33-1.45.19-.09.37-.18.55-.28l-2.39-.4 4.95-1.85-2.74-.46 5.23-1.96c-1.39-.27-2.81-.41-4.19-.42 1.39-.48 3.3-.75 5.56-.7l.02-.02-2.01-.83 3.02-1.13c-1.06-.36-2.18-.55-3.31-.58 1.68-.91 3.77-1.42 6.04-1.33-1.94-.55-4.03-.85-6.02-.85 1.87-.64 4.66-.91 7.95-.54h.01c-2.16-.5-4.49-.88-6.67-1.1 1.7-.09 5.68-.56 9.53-1.79-3.61-1.01-4.52-.32-6.04.22 1.69-1.3 5.54-1.84 8.19-1.99l.07-.07c-1.46-.63-3.02-.99-4.62-1.07 1.91-.91 7.57-1.68 7.57-1.68-.59-.11-1.19-.18-1.8-.21.37-.18.77-.34 1.18-.48-6.81-.77-13.93 1.55-18.96 6.22-5.32 4.94-8.18 12.42-7.51 19.65l5.83-5.42Z"
    style="fill:url(#b)" />
  <path
    d="M132.38 108.32c-.1 1.44-1.34 2.53-2.78 2.43-1.44-.1-2.53-1.34-2.43-2.78.1-1.44 1.34-2.53 2.78-2.43 1.44.1 2.53 1.34 2.43 2.78Z"
    style="stroke-width:0" />
  <path
    d="M128.7 107.38c.05.09.09.18.14.27.01.02.02.05.04.07v.02c.02.05.04.09.06.13.02.05.05.09.07.14.05.09.1.18.15.28 0 .02.02.03.03.05 0 .02.02.05.03.08.03.06.06.13.09.19.04.08.07.16.11.24.03.06.05.11.09.17 0 0 0 .02.02.03.02.05.04.09.06.14.05.11.1.22.16.33.02.03.03.08.05.12.14.31.28.62.42.94.02.04.04.09.06.13l.18.42.24.57c.41.98.81 2.01 1.2 3.08.05.12.09.24.13.35 2.32 6.43 4.31 14.27 5.93 22.74 3.63 19.03 5.39 56.57 4.84 73.24h4.96c.8-17.29-3.25-57.52-8.26-77.03-2.38-9.26-4.97-17.3-7.35-22.71-.12-.27-.24-.53-.35-.79-.02-.08-.06-.15-.1-.23-.05-.1-.1-.2-.15-.31-.15-.31-.3-.61-.45-.91-.04-.09-.09-.18-.13-.27v-.02c-.15-.09-.29-.19-.43-.28-.07-.04-.14-.09-.2-.13-.01 0-.03-.02-.04-.03-.04-.02-.07-.05-.11-.07-.05-.03-.1-.05-.15-.09-.07-.05-.13-.09-.2-.13-.04-.02-.07-.05-.11-.07-.05-.04-.11-.07-.16-.11-.03 0-.05-.03-.07-.05-.03-.02-.05-.03-.08-.05s-.07-.05-.11-.08c-.04-.03-.08-.05-.13-.08-.09-.06-.18-.12-.27-.17-.02-.02-.04-.03-.06-.05-.05-.03-.09-.06-.13-.09Zm78.09-8.17c-.54-.47-1.16-.84-1.85-1.08.95-.1 1.83.35 2.7.64.46.17.91.3 1.37.41l-1.65-2.33c2.6 1.16 4.32 1.95 5.46 2.47l-.66-1.19c2.19.39 3.63.9 4.56 1.35-.11-.85-.64-1.58-1.94-2.89 1.66.82 1.98.76 3.46 2.62-.24-.88-.7-1.71-1.38-2.46 2.08.58 3.95 1.56 5.3 2.92-1.31-2.7 2.7-.11 4.37.13-.26-.2-.54-.39-.82-.57 1.13.06 2.32.31 3.49.76-1.16-1.19-2.69-2.2-3.91-3.12 2.23.3 4.64 1.4 6.7 3.36-.59-1.5-1.45-2.88-2.53-4.08 2.02.72 4.07 2.13 5.77 4.21h.14c-.36-.54-.76-1.06-1.2-1.55.79.28 1.59.67 2.37 1.16-4.29-5.75-11.24-9.43-18.41-9.72-7.35-.3-14.77 2.98-19.49 8.62l8.15.33Z"
    style="stroke-width:0" />
  <path
    d="M191.72 100.8c.42-.58.94-1.08 1.56-1.47-.95.12-1.7.76-2.49 1.23-.41.27-.82.5-1.24.71l1.09-2.65c-2.28 1.72-3.78 2.87-4.77 3.64l.38-1.31c-2.05.87-3.34 1.69-4.14 2.34-.08-.85.27-1.68 1.24-3.26-1.43 1.17-1.76 1.19-2.79 3.33.03-.91.3-1.82.8-2.71-1.9 1.03-3.5 2.41-4.51 4.03.67-2.93-2.66.49-4.23 1.11.21-.26.43-.5.67-.74-1.09.31-2.19.82-3.23 1.53.86-1.42 2.12-2.75 3.11-3.91-2.11.79-4.21 2.41-5.78 4.78.24-1.59.76-3.13 1.55-4.55-1.8 1.15-3.49 2.99-4.68 5.4l-.14.04c.23-.61.51-1.21.83-1.78-.71.45-1.4 1.01-2.04 1.66 2.89-6.56 8.84-11.71 15.76-13.6 7.1-1.94 15.06-.41 20.93 4.03l-7.87 2.15Zm8.62 6.44c.22-.58.34-1.2.35-1.84.39.88.23 1.85.23 2.77 0 .21-.01.42 0 .63l1.46-1.97-.62 5.32 1.68-2.26-.66 5.62c.89-1.13 1.68-2.34 2.32-3.58-.22 1.48-.86 3.33-1.94 5.33v.03l1.69-1.43-.38 3.25c.81-.79 1.51-1.71 2.05-2.72.04 1.94-.47 4.06-1.6 6.06 1.4-1.5 2.63-3.24 3.56-5.03-.29 1.98-1.34 4.62-3.19 7.42v.02c1.45-1.72 2.87-3.64 4.08-5.51-.71 1.57-2.13 5.38-2.8 9.41 2.59-2.79 2.38-3.93 2.6-5.54.39 2.12-.9 5.84-2 8.31l.03.1c1.24-1.02 2.3-2.27 3.1-3.67-.06 2.14-1.99 7.6-1.99 7.6.37-.48.72-.99 1.02-1.52-.01.42-.05.85-.11 1.29 3.85-5.79 5.06-13.27 3.18-19.97-1.99-7.08-7.41-13.12-14.23-15.87l2.18 7.77Z"
    style="stroke-width:0" />
  <path
    d="M205.09 104c-.22-.58-.54-1.13-.94-1.62.87.41 1.39 1.24 1.99 1.94.13.17.27.32.41.48l-.19-2.44 3.03 4.42-.22-2.81 3.2 4.67c-.07-1.43-.28-2.87-.61-4.22.81 1.25 1.54 3.07 2.05 5.29l.03.02.32-2.18 1.85 2.7c.09-1.13.01-2.28-.24-3.4 1.3 1.43 2.32 3.36 2.78 5.61.07-2.05-.15-4.17-.63-6.13 1.08 1.68 2.03 4.36 2.48 7.68h.01c-.04-2.23-.24-4.62-.56-6.82.5 1.65 1.94 5.45 4.09 8.93.11-3.8-.79-4.53-1.69-5.89 1.69 1.34 3.16 5 3.96 7.57l.08.05c.26-1.59.24-3.22-.08-4.8 1.36 1.65 3.5 7.04 3.5 7.04-.04-.61-.11-1.22-.23-1.82.27.32.52.67.76 1.04-.91-6.89-4.92-13.32-10.74-17.13-6.16-4.02-14.21-5.01-21.16-2.59l6.76 4.41Z"
    style="stroke-width:0" />
  <path
    d="M195.91 105.4c.11-.71.35-1.39.72-2.02-.79.54-1.17 1.45-1.65 2.23-.24.42-.5.82-.78 1.2l-.24-2.85c-1.24 2.57-2.05 4.28-2.58 5.41l-.26-1.34c-1.42 1.71-2.2 3.02-2.62 3.97-.46-.72-.53-1.62-.38-3.46-.74 1.7-1.03 1.86-.96 4.23-.39-.82-.57-1.76-.53-2.77-1.22 1.78-2.02 3.74-2.17 5.65-.74-2.91-2.14 1.65-3.26 2.92.07-.32.16-.65.26-.96-.83.78-1.57 1.73-2.18 2.83.12-1.66.63-3.42.98-4.9-1.51 1.67-2.65 4.06-2.96 6.89-.51-1.52-.75-3.13-.7-4.75-1.08 1.85-1.74 4.26-1.7 6.94l-.11.1c-.07-.65-.1-1.31-.08-1.96-.42.72-.78 1.53-1.06 2.41-.43-7.16 2.51-14.46 7.81-19.3 5.43-4.97 13.21-7.24 20.46-5.97l-6.02 5.51Zm-4.02-10.67c.62-.06 1.25 0 1.87.15-.74-.6-1.72-.71-2.61-.95-.21-.05-.41-.1-.61-.16l2.28-.89-5.29-.81 2.62-1.02-5.59-.86c1.32-.56 2.71-.99 4.07-1.28-1.48-.18-3.43-.06-5.66.45l-.03-.02 1.83-1.24-3.23-.5c.98-.57 2.05-1 3.17-1.26-1.86-.55-4.04-.63-6.26-.07 1.82-.95 3.82-1.67 5.8-2.09-1.98-.25-4.81.06-8 1.11h-.01c2.04-.94 4.27-1.8 6.39-2.47-1.7.26-5.75.62-9.82.2 3.37-1.75 4.42-1.25 6.03-1.04-1.94-.94-5.87-.68-8.54-.28l-.09-.05c1.32-.92 2.79-1.61 4.36-2.02-2.08-.51-7.86-.1-7.86-.1.57-.23 1.15-.43 1.74-.58-.41-.1-.83-.18-1.27-.23 6.6-2.17 14.14-1.35 20.09 2.24 6.3 3.8 10.68 10.62 11.52 17.94l-6.91-4.17Z"
    style="stroke-width:0" />
  <path
    d="M195.26 91.58c.65.29 1.25.71 1.75 1.24-.31-.91-1.08-1.52-1.71-2.19-.34-.34-.65-.71-.94-1.07l2.81.54c-2.14-1.89-3.56-3.13-4.51-3.94l1.36.11c-1.26-1.83-2.32-2.93-3.12-3.6.81-.25 1.7-.07 3.44.57-1.44-1.17-1.52-1.49-3.82-2.07.9-.15 1.84-.07 2.81.24-1.39-1.65-3.06-2.95-4.85-3.61 3 .07-1.01-2.5-1.93-3.92.29.16.58.32.86.51-.52-1.01-1.24-1.98-2.14-2.86 1.57.56 3.12 1.53 4.46 2.27-1.2-1.91-3.2-3.64-5.83-4.71 1.61-.09 3.22.12 4.76.6-1.49-1.54-3.63-2.82-6.23-3.51l-.06-.13c.65.1 1.28.26 1.91.45-.58-.6-1.27-1.17-2.04-1.67 7.01 1.52 13.24 6.32 16.48 12.73 3.32 6.57 3.41 14.68.23 21.31l-3.68-7.28Z"
    style="stroke-width:0" />
  <path
    d="M201.33 90.52c.19.59.28 1.22.26 1.86.43-.86.33-1.84.37-2.75 0-.21.01-.42.03-.63l1.36 2.04-.34-5.34 1.56 2.34-.36-5.65c.83 1.17 1.55 2.43 2.12 3.7-.14-1.49-.68-3.37-1.65-5.43v-.03l1.61 1.52-.21-3.26c.77.83 1.42 1.78 1.91 2.83.14-1.93-.25-4.08-1.28-6.13 1.31 1.57 2.45 3.38 3.29 5.21-.18-1.99-1.09-4.68-2.79-7.58 1.35 1.78 2.67 3.77 3.77 5.7-.62-1.61-1.84-5.49-2.29-9.55 2.43 2.92 2.17 4.05 2.3 5.67.5-2.1-.59-5.88-1.55-8.4l.03-.09c1.18 1.09 2.17 2.39 2.9 3.82.05-2.14-1.59-7.7-1.59-7.7.35.5.66 1.03.94 1.57.01-.42 0-.85-.04-1.29 3.53 5.98 4.34 13.52 2.11 20.11-2.37 6.97-8.09 12.71-15.05 15.09l2.59-7.64Z"
    style="stroke-width:0" />
  <path
    d="M196.62 99.76c.15 1.46 1.45 2.52 2.9 2.37 1.46-.15 2.52-1.45 2.37-2.9-.15-1.46-1.45-2.52-2.9-2.37-1.46.15-2.52 1.45-2.37 2.9Z"
    style="stroke-width:0" />
  <path
    d="m202.53 211.41 4.96-.87c-6.16-28.19-11.98-83.08-8.14-106.64 0-.04.01-.08.02-.12.03-.19.06-.38.09-.56.06-.38.13-.75.2-1.12.01-.06.02-.11.03-.17.03-.17.07-.34.1-.5 0-.05.01-.1.03-.15.04-.18.07-.36.11-.55s.01-.07.02-.1c.01-.06.02-.11.03-.16.01-.05.03-.1.04-.15.03-.11.05-.23.08-.36 0-.05.02-.11.04-.15 0-.05.02-.11.04-.16 0-.07.02-.12.05-.18.03-.16.07-.32.1-.48 0-.01 0-.03.01-.04.02-.08.04-.16.05-.24-.07.08-.14.15-.21.23-.03.04-.06.07-.09.11-.01.02-.03.04-.05.06-.05.05-.1.09-.15.15-.05.06-.11.13-.16.17-.02.03-.03.05-.06.07-.03.03-.06.07-.09.1l-.05.05c-.09.1-.17.18-.27.29s-.07.09-.12.13l-.02.02c-.03.03-.05.06-.08.08-.07.08-.14.15-.21.23-.11.11-.21.22-.32.34-.02.02-.04.04-.05.06-.02.1-.04.21-.06.33-.07.26-.13.52-.19.78-.05.22-.1.46-.15.69-.01.08-.04.18-.05.27-.05.24-.09.48-.14.73-3.65 19.58-1.66 79.32 4.66 107.8ZM63.65 50.52c.85-.69 1.84-1.23 2.92-1.56-1.46-.2-2.84.44-4.2.83-.71.24-1.42.4-2.13.56l2.69-3.5c-4.08 1.64-6.78 2.74-8.56 3.48l1.09-1.79c-3.4.47-5.64 1.16-7.11 1.8.22-1.29 1.08-2.39 3.16-4.34-2.6 1.17-3.1 1.05-5.49 3.83.42-1.34 1.18-2.59 2.28-3.7-3.24.76-6.18 2.16-8.34 4.18 2.18-4.08-4.15-.34-6.74-.06.42-.3.85-.57 1.29-.83-1.75.02-3.59.33-5.42.96 1.86-1.77 4.27-3.23 6.21-4.56-3.46.33-7.23 1.88-10.52 4.77 1-2.27 2.4-4.36 4.14-6.14-3.15.98-6.4 3.04-9.14 6.14h-.22c.59-.82 1.24-1.59 1.95-2.32-1.23.39-2.48.94-3.71 1.65 6.95-8.59 17.87-13.85 28.93-13.86 11.34-.02 22.56 5.48 29.5 14.45l-12.57.02Z"
    style="stroke-width:0" />
  <path
    d="M88.07 51.66c-.78-.78-1.71-1.4-2.75-1.84 1.48-.06 2.78.72 4.1 1.24.69.31 1.37.54 2.06.77l-2.32-3.75c3.89 2.04 6.47 3.4 8.17 4.32l-.91-1.89c3.33.81 5.5 1.72 6.89 2.5-.09-1.31-.83-2.48-2.71-4.63 2.47 1.42 2.98 1.36 5.08 4.36-.28-1.37-.91-2.69-1.9-3.91 3.14 1.08 5.93 2.77 7.88 4.99-1.76-4.28 4.16.08 6.71.61-.39-.34-.79-.66-1.2-.96 1.74.2 3.54.69 5.3 1.5-1.67-1.95-3.92-3.64-5.73-5.16 3.41.67 7.01 2.59 10 5.8-.77-2.36-1.95-4.57-3.5-6.52 3.04 1.29 6.06 3.67 8.48 7.03l.22.02c-.51-.87-1.08-1.71-1.71-2.5 1.19.51 2.38 1.18 3.53 2.01-6.05-9.24-16.4-15.57-27.4-16.69-11.28-1.15-23 3.2-30.8 11.43l12.51 1.28Z"
    style="stroke-width:0" />
  <path
    d="M75.4 62.37c-.33-.9-.5-1.86-.51-2.84-.61 1.34-.39 2.85-.4 4.26.01.33.01.65 0 .97l-2.22-3.06.86 8.21-2.55-3.51.91 8.67c-1.35-1.75-2.54-3.64-3.51-5.57.31 2.28 1.26 5.14 2.89 8.25v.05l-2.58-2.24.53 5.01c-1.24-1.23-2.29-2.66-3.11-4.23-.1 2.98.64 6.26 2.35 9.36-2.12-2.33-3.99-5.04-5.39-7.82.41 3.05 1.97 7.14 4.78 11.49v.02c-2.2-2.67-4.36-5.67-6.18-8.57 1.06 2.43 3.18 8.33 4.14 14.56-3.93-4.34-3.59-6.1-3.91-8.59-.64 3.26 1.28 9.02 2.93 12.84l-.04.15c-1.89-1.6-3.5-3.53-4.71-5.71.05 3.3 2.93 11.75 2.93 11.75-.57-.75-1.09-1.54-1.55-2.37 0 .65.06 1.31.15 1.98-5.82-8.99-7.55-20.55-4.52-30.83 3.2-10.88 11.66-20.08 22.22-24.19L75.4 62.34Z"
    style="stroke-width:0" />
  <path
    d="M68.57 59.91c.19-.94.53-1.85 1.03-2.7-1.22.84-1.8 2.24-2.54 3.45-.16.28-.32.56-.5.83l-.33-3.76-3.49 7.48-.38-4.32-3.68 7.9c-.25-2.2-.3-4.43-.14-6.58-.91 2.11-1.57 5.05-1.77 8.56l-.04.03-1.04-3.24-2.13 4.57c-.43-1.7-.6-3.46-.49-5.23-1.62 2.51-2.67 5.7-2.8 9.24-.62-3.09-.83-6.38-.6-9.48-1.22 2.83-1.99 7.14-1.82 12.31l-.02.02c-.5-3.42-.81-7.1-.88-10.52-.35 2.63-1.57 8.78-3.95 14.61-1.14-5.75.06-7.08 1.07-9.37-2.22 2.47-3.54 8.4-4.1 12.51l-.11.1c-.8-2.35-1.18-4.83-1.1-7.32-1.65 2.85-3.54 11.59-3.54 11.59-.1-.94-.14-1.88-.11-2.82-.32.56-.62 1.15-.89 1.78-.36-10.7 4.11-21.5 11.99-28.76 8.34-7.68 20.33-11.22 31.51-9.3l-9.15 8.42Z"
    style="stroke-width:0" />
  <path
    d="M84.17 58.39c-.34-1.05-.88-2.03-1.6-2.89 1.34.62 2.15 1.91 3.08 2.98.47.58.97 1.11 1.49 1.62l-.36-4.39c2.54 3.59 4.2 5.98 5.29 7.57l.06-2.1c2.6 2.24 4.11 4.04 4.99 5.37.52-1.21.39-2.59-.3-5.36 1.55 2.39 2.03 2.57 2.53 6.19.38-1.35.42-2.81.1-4.35 2.3 2.4 4.01 5.17 4.73 8.04.39-4.61 3.67 1.97 5.69 3.61-.19-.48-.4-.94-.63-1.4 1.46.97 2.83 2.23 4.03 3.75-.6-2.5-1.83-5.03-2.74-7.21 2.72 2.15 5.05 5.51 6.25 9.72.39-2.44.35-4.96-.14-7.39 2.11 2.54 3.72 6.03 4.34 10.12l.19.12c-.05-1.01-.18-2.01-.38-3 .83.99 1.58 2.13 2.22 3.4-1.16-10.99-7.48-21.34-16.76-27.36-9.51-6.17-21.92-7.66-32.62-3.89l10.55 6.85Z"
    style="stroke-width:0" />
  <path
    d="M83.08 43.47c-.93.23-1.82.63-2.64 1.17.77-1.26 2.14-1.91 3.31-2.71.28-.17.54-.35.8-.54l-3.77-.13 7.29-3.87-4.34-.15 7.7-4.09c-2.21-.14-4.44-.07-6.58.2 2.06-1.02 4.96-1.83 8.46-2.22l.03-.04-3.29-.87 4.45-2.37c-1.72-.34-3.49-.41-5.25-.22 2.42-1.75 5.55-2.97 9.08-3.28-3.12-.46-6.41-.49-9.5-.1 2.76-1.37 7.03-2.36 12.2-2.46l.02-.02c-3.44-.32-7.13-.44-10.55-.33 2.61-.48 8.68-2.02 14.38-4.71-5.8-.83-7.07.43-9.31 1.56 2.35-2.35 8.2-3.98 12.28-4.75l.1-.12c-2.38-.67-4.89-.92-7.36-.72 2.76-1.8 11.38-4.14 11.38-4.14-.94-.05-1.89-.04-2.83.04.54-.35 1.12-.68 1.73-.99-10.7.2-21.26 5.23-28.09 13.48-7.23 8.74-10.13 20.89-7.63 31.95l7.93-9.58Z"
    style="stroke-width:0" />
  <path
    d="M80.37 51.33c.14 2.25-1.56 4.19-3.82 4.33-2.25.14-4.19-1.56-4.33-3.82-.14-2.25 1.56-4.19 3.82-4.33 2.25-.14 4.19 1.56 4.33 3.82Z"
    style="stroke-width:0" />
  <path
    d="M74.89 49.47c.1.34.2.68.3 1.03.04.16.09.33.14.49.01.06.03.12.04.18v.02c.07.25.14.5.21.76.03.14.08.29.12.44.04.2.1.39.16.6 0 .05.02.11.04.16.2.81.41 1.64.6 2.5.13.53.25 1.09.38 1.65v.01c1.25 5.64 2.38 12.15 3.36 19.25.25 1.77.48 3.57.71 5.42.07.56.13 1.12.2 1.68.03.18.05.37.07.55.57 4.89 1.08 10.01 1.52 15.26.12 1.4.23 2.81.34 4.23.19 2.58.37 5.18.53 7.81.03.53.07 1.04.09 1.57 1.78 30.56 1.24 79.08-2.49 102.36h7.84c4.27-25.81 2.66-82.12-1.3-115.22-.31-2.59-.63-5.13-.97-7.61-.43-3.16-.88-6.23-1.35-9.18-.49-3.09-1-6.04-1.52-8.84-1.49-7.96-3.09-14.65-4.72-19.46-.07-.19-.13-.37-.18-.54-.26-.71-.5-1.38-.75-1.99-.05-.14-.11-.28-.16-.41-.21-.18-.42-.35-.62-.53-.12-.1-.23-.2-.34-.29l-.02-.02c-.06-.05-.1-.09-.15-.13-.06-.07-.13-.12-.18-.18-.16-.12-.3-.24-.44-.37-.09-.08-.17-.14-.25-.21-.03-.03-.07-.05-.09-.08-.09-.08-.18-.16-.26-.23-.29-.24-.56-.48-.85-.73ZM387.5 215.82l-6.01-1.39c5.13-28.75 8.74-73.06 3.9-100.66-.04-.31-.1-.63-.17-.95 0-.03 0-.04-.01-.07-.04-.26-.08-.51-.13-.76-.03-.14-.06-.29-.09-.42-.01-.11-.03-.23-.06-.34-.01-.12-.04-.24-.07-.36v-.03c-.01-.14-.04-.26-.07-.39v-.02c-.01-.12-.05-.24-.07-.35v-.04c-.03-.17-.07-.35-.1-.52s-.02-.08-.03-.12 0-.05 0-.06c0-.07-.02-.14-.04-.21 0-.07-.02-.13-.04-.19-.04-.25-.09-.49-.14-.74.15.17.3.34.44.5s.07.08.11.12c.04.06.09.11.14.16.04.04.08.09.12.14l.02.01s.03.04.05.06c.11.1.21.22.32.34s0 .01 0 .01c.12.13.23.25.35.38.05.05.1.11.15.17.05.07.09.12.15.18 0 .02.01.05 0 .07.03.1.04.2.06.29.05.25.11.51.16.76.02.1.04.19.06.29.03.16.07.33.1.49.02.07.03.14.05.2 5.69 27.4 5.93 70.91.85 103.48Zm-8.7-109.02c.58-.61 1.28-1.1 2.06-1.45-1.13-.02-2.11.6-3.1 1.02-.52.25-1.04.44-1.56.62l1.7-2.9c-2.93 1.62-4.87 2.71-6.15 3.44l.66-1.46c-2.53.68-4.16 1.41-5.21 2.04.04-1 .59-1.91 1.98-3.58-1.86 1.13-2.25 1.09-3.79 3.42.19-1.05.65-2.07 1.37-3.02-2.38.88-4.47 2.22-5.91 3.95 1.26-3.3-3.17.14-5.1.59.29-.26.59-.51.9-.75-1.32.18-2.68.59-4.01 1.24 1.24-1.52 2.92-2.85 4.27-4.04-2.58.58-5.3 2.11-7.51 4.6.54-1.81 1.4-3.52 2.55-5.03-2.29 1.04-4.55 2.91-6.34 5.51l-.17.02c.37-.67.79-1.32 1.25-1.94-.9.41-1.79.94-2.65 1.6 4.44-7.16 12.22-12.17 20.58-13.23 8.58-1.09 17.59 2.01 23.69 8.14l-9.51 1.2Z"
    style="stroke-width:0" />
  <path
    d="M381.4 110.33c.16-.82.47-1.61.93-2.33-.95.59-1.43 1.63-2.03 2.52-.3.48-.63.93-.96 1.36l-.03-2.49c-1.57 2.94-2.7 4.03-3.37 5.33l-.24-1.58c-1.74 1.92-2.7 3.42-3.24 4.51-.5-.87-.54-1.92-.28-4.08-.94 1.95-1.28 2.12-1.32 4.91-.41-.99-.58-2.09-.48-3.28-1.5 2.02-2.53 4.27-2.8 6.5-.73-3.45-2.57 1.82-3.93 3.23.1-.38.21-.75.34-1.12-1 .86-1.92 1.94-2.67 3.2.22-1.94.9-3.97 1.38-5.69-1.84 1.87-3.27 4.61-3.77 7.91-.52-1.81-.73-3.72-.59-5.6-1.35 2.11-2.22 4.89-2.3 8.04l-.13.11c-.06-.77-.06-1.54 0-2.3-.53.83-.98 1.75-1.35 2.77-.16-8.41 3.61-16.8 10.01-22.18 6.56-5.51 15.74-7.74 24.12-5.85l-7.27 6.11Z"
    style="stroke-width:0" />
  <path
    d="M378.74 102.47c.8-.17 1.61-.19 2.41-.04-.82-.62-1.92-.66-2.91-.86-.53-.08-1.03-.21-1.53-.35l3.02-1.38c-3.15-.29-5.25-.47-6.63-.58l1.37-.8c-2.28-.82-3.93-1.12-5.09-1.19.64-.77 1.59-1.2 3.64-1.78-2.06-.11-2.32-.34-4.88.67.78-.73 1.73-1.29 2.85-1.65-2.29-.58-4.65-.64-6.77-.05 2.93-1.94-2.43-1.6-4.13-2.28.37-.05.75-.09 1.12-.11-1.09-.57-2.34-.97-3.72-1.17 1.84-.54 3.89-.69 5.61-.91-2.26-.93-5.19-1.18-8.35-.39 1.5-1.15 3.17-2.04 4.94-2.63-2.33-.41-5.13-.14-8.03.97l-.14-.07c.68-.34 1.38-.62 2.1-.86-.91-.16-1.9-.22-2.93-.16 7.63-3.29 16.41-3.08 23.24.58 7 3.76 11.79 11.07 12.59 19.22l-7.77-4.17Z"
    style="stroke-width:0" />
  <path
    d="M384.76 113.39c-.18-.71-.23-1.45-.16-2.2-.57.97-.52 2.13-.64 3.2-.02.25-.04.49-.08.73l-1.44-2.49v6.29l-1.65-2.86v6.65c-.87-1.44-1.63-2.96-2.21-4.5.05 1.75.55 4 1.54 6.49v.04l-1.78-1.9v3.84c-.84-1.03-1.52-2.2-2.02-3.45-.31 2.25 0 4.8 1.05 7.29-1.43-1.94-2.63-4.14-3.48-6.35.07 2.35.94 5.57 2.73 9.09v.02c-1.46-2.2-2.86-4.64-4.02-6.98.61 1.93 1.76 6.57 2 11.37-2.64-3.6-2.25-4.91-2.29-6.82-.74 2.43.27 6.95 1.21 9.97l-.04.11c-1.31-1.36-2.38-2.96-3.13-4.7-.22 2.51 1.3 9.15 1.3 9.15-.37-.61-.7-1.25-.99-1.92-.04.49-.06 1-.04 1.52-3.71-7.27-4.12-16.18-1.02-23.74 3.28-8 10.42-14.32 18.76-16.61l-3.6 8.78Z"
    style="stroke-width:0" />
  <path
    d="M391.71 111.06c-.18-.82-.51-1.61-.99-2.32.97.58 1.48 1.62 2.1 2.5.31.48.65.92 1 1.35l.07-3.36c1.64 2.92 2.72 4.87 3.42 6.16l.21-1.59c1.79 1.9 2.8 3.39 3.36 4.47.49-.87.5-1.93.19-4.09.99 1.94 1.34 2.11 1.43 4.9.39-.99.54-2.1.41-3.29 1.56 2 2.64 4.24 2.96 6.47.66-3.47 2.63 1.78 4.03 3.18-.11-.38-.23-.75-.37-1.11 1.03.85 1.97 1.91 2.76 3.16-.26-1.94-.99-3.96-1.51-5.68 1.9 1.85 3.4 4.57 3.98 7.86.49-1.82.65-3.73.47-5.62 1.4 2.09 2.35 4.86 2.5 8.02l.13.11c.04-.77.02-1.54-.05-2.31.55.82 1.03 1.74 1.42 2.75-.02-8.43-4.01-16.77-10.57-22.07-6.73-5.43-16.03-7.52-24.44-5.51l7.46 6.02Z"
    style="stroke-width:0" />
  <path
    d="M383.18 111.48c.25-.8.34-1.65.27-2.51.56.98.5 2.13.62 3.21.04.57.12 1.12.22 1.66l1.7-2.9c0 3.35 0 5.57-.01 7.05l.95-1.28c.64 2.53.79 4.32.76 5.54.85-.53 1.38-1.44 2.16-3.48-.08 2.17.14 2.49-1.14 4.98.83-.68 1.49-1.57 1.97-2.67.39 2.51.24 4.99-.57 7.09 2.27-2.71 1.43 2.84 1.97 4.74.09-.38.16-.76.22-1.15.49 1.24.79 2.63.87 4.11.72-1.82 1.06-3.94 1.45-5.7.76 2.54.74 5.65-.36 8.8 1.32-1.35 2.39-2.94 3.16-4.67.21 2.51-.32 5.39-1.73 8.22l.06.16c.41-.65.77-1.33 1.08-2.04.08.98.05 2.02-.11 3.1 4.09-7.37 4.68-16.6 1.53-24.42-3.23-8.02-10.33-14.38-18.65-16.73l3.58 8.9Z"
    style="stroke-width:0" />
  <path
    d="M393.72 101.73c-.73-.02-1.47.08-2.18.31.83-.77 1.97-.97 2.99-1.31.24-.07.47-.15.7-.23l-2.75-.87 6.15-1.35-3.16-1 6.5-1.43c-1.59-.55-3.25-.96-4.87-1.2 1.72-.33 4.02-.33 6.67.11l.03-.02-2.24-1.32 3.75-.82c-1.19-.6-2.48-1.02-3.81-1.24 2.13-.79 4.69-1.04 7.34-.55-2.2-.98-4.61-1.68-6.96-2.02 2.31-.44 5.65-.29 9.46.7h.02c-2.46-.95-5.15-1.8-7.68-2.42 2.02.18 6.79.3 11.53-.51-4.09-1.8-5.28-1.13-7.16-.76 2.21-1.24 6.84-1.24 9.99-.97l.1-.07c-1.61-.98-3.4-1.68-5.26-2.04 2.4-.76 9.21-.71 9.21-.71-.68-.23-1.38-.42-2.08-.55.47-.15.96-.27 1.47-.37-7.9-2.05-16.69-.52-23.4 4.14-7.1 4.93-11.73 13.26-12.16 21.9l7.79-5.41Z"
    style="stroke-width:0" />
  <path
    d="M394.25 105.24c-.49-.55-1.06-1.02-1.71-1.38 1.1.09 2.02.79 2.96 1.31.21.13.42.24.64.36l-1.26-2.58 5.14 3.59-1.45-2.97 5.43 3.79c-.7-1.53-1.54-3.01-2.49-4.35 1.41 1.04 2.98 2.72 4.48 4.94h.04l-.61-2.5 3.14 2.19c-.39-1.27-.98-2.49-1.74-3.61 2.01 1.03 3.93 2.73 5.4 4.99-.82-2.26-1.97-4.48-3.34-6.42 1.88 1.39 4.06 3.93 5.98 7.37h.02c-1.02-2.42-2.27-4.94-3.56-7.21 1.25 1.59 4.43 5.15 8.23 8.08-1.53-4.18-2.81-4.61-4.35-5.73 2.38.78 5.54 4.16 7.5 6.65l.11.03c-.41-1.83-1.15-3.6-2.17-5.2 2.17 1.25 6.79 6.25 6.79 6.25-.3-.65-.65-1.28-1.04-1.89.43.24.85.52 1.26.83-3.96-7.13-11.03-12.52-18.88-14.32-8.3-1.9-17.3.28-23.64 5.72l9.11 2.08Z"
    style="stroke-width:0" />
  <path
    d="M389.96 98.9c-.51.39-.96.87-1.32 1.42.15-.97.82-1.73 1.33-2.53.13-.18.24-.36.35-.54l-2.36.95 3.48-4.31-2.71 1.09 3.68-4.55c-1.39.52-2.75 1.17-3.99 1.91 1-1.17 2.58-2.45 4.63-3.63v-.03l-2.24.37 2.12-2.63c-1.14.26-2.25.7-3.29 1.3 1.03-1.71 2.65-3.29 4.74-4.44-2.04.57-4.08 1.45-5.87 2.52 1.34-1.57 3.71-3.33 6.87-4.79v-.02c-2.2.74-4.5 1.67-6.58 2.67 1.48-1 4.82-3.58 7.63-6.74-3.79 1.07-4.24 2.18-5.32 3.47.84-2.05 4.01-4.62 6.32-6.19l.03-.1c-1.64.24-3.25.77-4.72 1.57 1.23-1.84 5.93-5.59 5.93-5.59-.59.22-1.17.49-1.73.79.24-.36.51-.72.81-1.06-6.54 3.03-11.73 8.92-13.79 15.74-2.18 7.22-.81 15.32 3.61 21.29l2.39-7.92Z"
    style="stroke-width:0" />
  <path
    d="M389.39 105.4c-.07 1.72-1.52 3.06-3.23 2.99-1.72-.07-3.06-1.52-2.99-3.23.07-1.72 1.52-3.06 3.23-2.99 1.72.07 3.06 1.52 2.99 3.23Zm-68.14 6.57c-.27-.64-.67-1.22-1.18-1.72.88.31 1.46 1.07 2.1 1.68.33.34.68.64 1.03.93l-.48-2.73c1.8 2.1 2.99 3.5 3.77 4.43l-.09-1.32c1.76 1.25 2.81 2.29 3.45 3.07.25-.79.09-1.65-.5-3.34 1.11 1.41 1.42 1.49 1.95 3.73.16-.87.09-1.79-.2-2.73 1.58 1.37 2.82 3 3.44 4.75-.03-2.91 2.42 1.02 3.78 1.92-.15-.29-.31-.57-.48-.84.97.52 1.91 1.23 2.75 2.11-.52-1.53-1.44-3.04-2.14-4.35 1.83 1.19 3.49 3.15 4.49 5.72.1-1.55-.07-3.13-.53-4.62 1.47 1.46 2.69 3.56 3.32 6.08l.12.06c-.09-.63-.23-1.25-.41-1.86.58.57 1.11 1.24 1.59 2-1.38-6.81-5.96-12.92-12.12-16.14-6.33-3.3-14.19-3.5-20.67-.5l7.01 3.66Z"
    style="stroke-width:0" />
  <path
    d="M320.35 107.59c-.64-.26-1.33-.4-2.04-.4.84-.39 1.79-.26 2.68-.27.47.01.93-.02 1.38-.06l-2.26-1.61c2.76.24 4.58.4 5.79.52l-.99-.88c2.13-.34 3.61-.34 4.61-.22-.37-.74-1.09-1.24-2.7-2.03 1.78.22 2.06.06 4.01 1.29-.5-.73-1.19-1.34-2.05-1.81 2.09-.14 4.12.17 5.79.98-2.06-2.06 2.44-.97 4.04-1.28-.31-.1-.62-.19-.93-.26 1.06-.31 2.22-.46 3.44-.42-1.44-.72-3.16-1.16-4.58-1.6 2.14-.44 4.7-.2 7.21.94-1.02-1.18-2.24-2.18-3.62-2.93 2.08.01 4.41.66 6.63 2.02l.13-.04c-.51-.38-1.04-.73-1.6-1.04.81 0 1.67.11 2.54.31-5.76-3.9-13.3-5.05-19.96-3.03-6.83 2.07-12.57 7.44-15.1 14.12l7.57-2.3Z"
    style="stroke-width:0" />
  <path
    d="M315.75 115.94c.24-.56.38-1.15.42-1.77.34.87.14 1.8.1 2.69-.02.2-.03.41-.04.61l1.51-1.84-.84 5.12 1.73-2.11-.89 5.42c.91-1.05 1.73-2.2 2.4-3.37-.28 1.42-.98 3.18-2.11 5.08v.03l1.7-1.31-.51 3.13c.82-.73 1.54-1.59 2.11-2.54-.05 1.88-.63 3.91-1.82 5.8 1.42-1.39 2.69-3.02 3.67-4.72-.37 1.9-1.5 4.42-3.42 7.04 1.47-1.58 2.94-3.39 4.19-5.14-.75 1.49-2.3 5.12-3.13 9 2.63-2.59 2.48-3.7 2.76-5.25.28 2.07-1.13 5.62-2.3 7.96l.02.09c1.25-.94 2.32-2.09 3.17-3.41-.15 2.07-2.27 7.28-2.27 7.28.38-.45.74-.93 1.06-1.43-.03.41-.08.82-.16 1.24 3.98-5.44 5.49-12.64 3.96-19.2-1.62-6.95-6.59-13.04-13.09-16l1.77 7.62Z"
    style="stroke-width:0" />
  <path
    d="M310.39 113.12c.25-.64.63-1.24 1.11-1.76-.86.34-1.42 1.12-2.04 1.76-.32.35-.65.66-.99.97l.38-2.75c-1.72 2.16-2.86 3.61-3.6 4.56l.04-1.32c-1.71 1.31-2.73 2.39-3.33 3.2-.28-.78-.15-1.64.38-3.36-1.06 1.45-1.37 1.54-1.81 3.8-.19-.86-.16-1.78.1-2.73-1.53 1.42-2.71 3.11-3.26 4.88-.08-2.91-2.38 1.1-3.71 2.06.14-.29.29-.58.45-.86-.95.56-1.86 1.3-2.67 2.21.47-1.55 1.33-3.09 1.98-4.43-1.79 1.25-3.37 3.28-4.28 5.88-.16-1.55-.04-3.13.36-4.64-1.42 1.52-2.55 3.65-3.09 6.2l-.12.07c.07-.63.18-1.26.35-1.87-.56.59-1.07 1.28-1.52 2.06 1.13-6.86 5.48-13.13 11.52-16.58 6.2-3.53 14.05-4.02 20.63-1.26l-6.87 3.92Z"
    style="stroke-width:0" />
  <path
    d="M306.98 107.81c.6-.34 1.27-.57 1.97-.66-.89-.28-1.81-.03-2.69.07-.47.07-.92.1-1.38.12l2.03-1.89c-2.7.59-4.49.99-5.67 1.26l.87-1c-2.16-.06-3.62.13-4.6.37.27-.78.92-1.37 2.42-2.36-1.74.45-2.03.33-3.81 1.8.4-.79 1-1.48 1.8-2.06-2.09.14-4.06.7-5.61 1.72 1.78-2.31-2.54-.64-4.17-.74.29-.14.59-.27.89-.38-1.09-.17-2.26-.17-3.46.03 1.34-.9 2.99-1.56 4.33-2.18-2.18-.16-4.68.41-7.03 1.86.86-1.3 1.94-2.45 3.21-3.38-2.06.28-4.29 1.22-6.31 2.86l-.14-.02c.45-.45.94-.86 1.45-1.23-.81.11-1.64.32-2.48.64 5.21-4.61 12.54-6.72 19.4-5.58 7.04 1.18 13.43 5.76 16.8 12.05l-7.8-1.3Z"
    style="stroke-width:0" />
  <path
    d="M309.98 105.26c.6.08 1.18.26 1.73.54-.57-.73-1.47-1.05-2.26-1.46-.18-.09-.36-.18-.54-.28l2.35-.35-4.83-1.91 2.7-.4-5.1-2.02c1.37-.24 2.77-.36 4.13-.33-1.36-.49-3.23-.8-5.45-.79l-.02-.02 1.99-.78-2.95-1.17c1.05-.33 2.15-.5 3.27-.5-1.63-.92-3.68-1.47-5.91-1.42 1.92-.5 3.98-.76 5.93-.73-1.82-.66-4.56-.98-7.8-.68h-.01c2.13-.45 4.43-.79 6.58-.96-1.67-.12-5.57-.66-9.33-1.93 3.57-.93 4.45-.23 5.93.32-1.63-1.3-5.41-1.91-8.01-2.11l-.07-.07c1.44-.59 2.99-.92 4.56-.97-1.86-.93-7.41-1.79-7.41-1.79.58-.1 1.18-.16 1.77-.17-.36-.18-.75-.35-1.15-.5 6.71-.63 13.66 1.78 18.51 6.46 5.14 4.96 7.81 12.35 7.02 19.44l-5.63-5.43Z"
    style="stroke-width:0" />
  <path
    d="M313.82 100.35c.35.49.62 1.04.79 1.64.14-.92-.24-1.79-.48-2.65-.06-.2-.12-.39-.16-.59l1.86 1.48-1.9-4.83 2.14 1.7-2.01-5.11c1.11.84 2.15 1.78 3.06 2.78-.57-1.33-1.63-2.91-3.14-4.52v-.03l1.93.93-1.16-2.95c.96.54 1.84 1.23 2.6 2.04-.44-1.82-1.44-3.69-3-5.28 1.68 1.06 3.27 2.38 4.58 3.83-.76-1.78-2.4-4-4.83-6.16v-.02c1.78 1.25 3.59 2.7 5.18 4.15-1.05-1.3-3.33-4.52-4.96-8.13 3.12 1.97 3.21 3.09 3.81 4.55-.16-2.09-2.3-5.25-3.94-7.29v-.1c1.42.65 2.72 1.55 3.82 2.67-.59-1.99-3.76-6.63-3.76-6.63.47.36.92.75 1.34 1.17-.12-.39-.26-.78-.42-1.18 5.04 4.47 8.04 11.19 7.93 17.93-.11 7.14-3.69 14.14-9.4 18.41l.12-7.83Z"
    style="stroke-width:0" />
  <path
    d="M313.03 108.82c-.17 1.41.83 2.69 2.24 2.86 1.41.17 2.69-.83 2.86-2.24.17-1.41-.83-2.69-2.24-2.86-1.41-.17-2.69.83-2.86 2.24Z"
    style="stroke-width:0" />
  <path
    d="m302.53 211.21 6.31-.91c-2.48-27.97-1.88-70.78 5.79-96.95.07-.3.17-.6.27-.9 0-.03.01-.04.02-.07.07-.24.13-.48.21-.72.04-.13.09-.27.13-.4.02-.11.05-.22.09-.32.03-.12.07-.23.11-.34 0-.01 0-.02.01-.03.03-.13.07-.24.11-.37v-.02c.03-.11.07-.23.11-.33 0 0 0-.02.01-.03.05-.16.11-.33.15-.49s.03-.07.04-.11.01-.04.01-.06c.02-.07.04-.13.06-.2.02-.07.03-.12.06-.18.07-.23.14-.46.22-.7-.17.15-.34.3-.5.45s-.08.07-.12.11c-.05.05-.11.1-.16.15-.05.04-.1.08-.14.13l-.02.01s-.04.03-.06.05c-.12.09-.24.2-.36.3-.14.12-.26.23-.39.34-.06.05-.11.1-.17.15l-.17.17c0 .02-.02.05-.02.06-.04.09-.06.19-.09.27-.07.24-.16.48-.24.72l-.09.27c-.05.15-.1.31-.15.47-.03.07-.04.13-.07.19-8.51 25.91-12.99 67.68-10.94 99.31ZM249.12 42.9c.85-.69 1.84-1.23 2.92-1.56-1.46-.2-2.84.44-4.2.83-.71.24-1.42.4-2.13.56l2.69-3.5c-4.08 1.64-6.78 2.74-8.56 3.48l1.09-1.79c-3.4.47-5.64 1.16-7.11 1.8.22-1.29 1.08-2.39 3.16-4.34-2.6 1.17-3.1 1.05-5.49 3.83.42-1.34 1.18-2.59 2.28-3.7-3.24.76-6.18 2.16-8.34 4.18 2.18-4.08-4.15-.34-6.74-.06.42-.3.85-.57 1.29-.83-1.75.02-3.59.33-5.42.96 1.86-1.77 4.27-3.23 6.21-4.56-3.46.33-7.23 1.88-10.52 4.77 1-2.27 2.4-4.36 4.14-6.14-3.15.98-6.4 3.04-9.14 6.14h-.22c.59-.82 1.24-1.59 1.95-2.32-1.23.39-2.48.94-3.71 1.65 6.95-8.59 17.87-13.85 28.93-13.86 11.34-.02 22.56 5.48 29.5 14.45l-12.57.02Z"
    style="stroke-width:0" />
  <path
    d="M273.54 44.04c-.78-.78-1.71-1.4-2.75-1.84 1.48-.06 2.78.72 4.1 1.24.69.31 1.37.54 2.06.77l-2.32-3.75c3.89 2.04 6.47 3.4 8.17 4.32l-.91-1.89c3.33.81 5.5 1.72 6.89 2.5-.09-1.31-.83-2.48-2.71-4.63 2.47 1.42 2.98 1.36 5.08 4.36-.28-1.37-.91-2.69-1.9-3.91 3.14 1.08 5.93 2.77 7.88 4.99-1.76-4.28 4.16.08 6.71.61-.39-.34-.79-.66-1.2-.96 1.74.2 3.54.69 5.3 1.5-1.67-1.95-3.92-3.64-5.73-5.16 3.41.67 7.01 2.59 9.99 5.8-.77-2.36-1.95-4.57-3.5-6.52 3.04 1.29 6.06 3.67 8.48 7.03l.22.02c-.51-.87-1.08-1.71-1.71-2.5 1.19.51 2.38 1.18 3.53 2.01-6.05-9.24-16.4-15.57-27.4-16.69-11.28-1.15-23 3.2-30.8 11.43l12.51 1.28Z"
    style="stroke-width:0" />
  <path
    d="M260.87 54.75c-.33-.9-.5-1.86-.51-2.84-.61 1.34-.39 2.85-.4 4.26.01.33.01.65 0 .97l-2.22-3.06.86 8.21-2.55-3.51.91 8.67c-1.35-1.75-2.54-3.64-3.51-5.57.31 2.28 1.26 5.14 2.89 8.25v.05l-2.58-2.24.53 5.01c-1.24-1.23-2.29-2.66-3.11-4.23-.1 2.98.64 6.26 2.35 9.36-2.12-2.33-3.99-5.04-5.39-7.82.41 3.05 1.97 7.14 4.78 11.49v.02c-2.2-2.67-4.36-5.67-6.18-8.57 1.06 2.43 3.18 8.33 4.14 14.56-3.93-4.34-3.59-6.1-3.91-8.59-.64 3.26 1.28 9.02 2.93 12.84l-.04.15c-1.89-1.6-3.5-3.53-4.71-5.71.05 3.3 2.93 11.75 2.93 11.75-.57-.75-1.09-1.54-1.55-2.37 0 .65.06 1.31.15 1.98-5.82-8.99-7.55-20.55-4.52-30.83 3.2-10.88 11.66-20.08 22.22-24.19l-3.51 11.93Z"
    style="stroke-width:0" />
  <path
    d="M254.03 52.29c.19-.94.53-1.85 1.03-2.7-1.22.84-1.8 2.24-2.54 3.45-.16.28-.32.56-.5.83l-.33-3.76-3.49 7.48-.38-4.32-3.68 7.9c-.25-2.2-.3-4.43-.14-6.58-.91 2.11-1.57 5.05-1.77 8.56l-.04.03-1.04-3.24-2.13 4.57c-.43-1.7-.6-3.46-.49-5.23-1.62 2.51-2.67 5.7-2.8 9.24-.62-3.09-.83-6.38-.6-9.48-1.22 2.83-1.99 7.14-1.82 12.31l-.02.02c-.5-3.42-.81-7.1-.88-10.52-.35 2.63-1.57 8.78-3.95 14.61-1.14-5.75.06-7.08 1.07-9.37-2.22 2.47-3.54 8.4-4.1 12.51l-.11.1c-.8-2.35-1.18-4.83-1.1-7.32-1.65 2.85-3.54 11.59-3.54 11.59-.1-.94-.14-1.88-.11-2.82-.32.56-.62 1.15-.89 1.78-.36-10.7 4.11-21.5 11.99-28.76 8.34-7.68 20.33-11.22 31.51-9.3l-9.15 8.42Z"
    style="stroke-width:0" />
  <path
    d="M269.63 50.77c-.34-1.05-.88-2.03-1.6-2.89 1.34.62 2.15 1.91 3.08 2.98.47.58.97 1.11 1.49 1.62l-.36-4.39c2.54 3.59 4.2 5.98 5.29 7.57l.06-2.1c2.6 2.24 4.11 4.04 4.99 5.37.52-1.21.39-2.59-.3-5.36 1.55 2.39 2.03 2.57 2.53 6.19.38-1.35.42-2.81.1-4.35 2.3 2.4 4.01 5.17 4.73 8.04.39-4.61 3.67 1.97 5.69 3.61-.19-.48-.4-.94-.63-1.4 1.46.97 2.83 2.23 4.03 3.75-.6-2.5-1.83-5.03-2.74-7.21 2.72 2.15 5.05 5.51 6.25 9.72.39-2.44.35-4.96-.14-7.39 2.11 2.54 3.72 6.03 4.34 10.12l.19.12c-.05-1.01-.18-2.01-.38-3 .83.99 1.58 2.14 2.22 3.4-1.16-10.99-7.48-21.34-16.76-27.36-9.51-6.17-21.92-7.66-32.62-3.89l10.55 6.85Z"
    style="stroke-width:0" />
  <path
    d="M268.55 35.85c-.93.23-1.82.63-2.64 1.17.77-1.26 2.14-1.91 3.31-2.71.28-.17.54-.35.8-.54l-3.77-.13 7.29-3.87-4.34-.15 7.7-4.09c-2.21-.14-4.44-.07-6.58.2 2.06-1.02 4.96-1.83 8.46-2.22l.03-.04-3.29-.87 4.45-2.37c-1.72-.34-3.49-.41-5.25-.22 2.42-1.75 5.55-2.97 9.08-3.28-3.12-.46-6.41-.49-9.5-.1 2.76-1.37 7.03-2.36 12.2-2.46l.02-.02c-3.44-.32-7.13-.44-10.55-.33 2.61-.48 8.68-2.02 14.38-4.71-5.8-.83-7.07.43-9.31 1.56 2.35-2.35 8.2-3.98 12.28-4.75l.1-.12c-2.38-.67-4.89-.92-7.36-.72 2.76-1.8 11.38-4.14 11.38-4.14-.94-.05-1.89-.04-2.83.04.54-.35 1.12-.68 1.73-.99-10.7.2-21.26 5.23-28.09 13.48-7.23 8.74-10.13 20.89-7.63 31.95l7.93-9.58Z"
    style="stroke-width:0" />
  <path
    d="M265.83 43.7c.14 2.25-1.56 4.19-3.82 4.33-2.25.14-4.19-1.56-4.33-3.82-.14-2.25 1.56-4.19 3.82-4.33 2.25-.14 4.19 1.56 4.33 3.82Z"
    style="stroke-width:0" />
  <path
    d="M260.36 41.85c.1.34.2.68.3 1.03.05.16.09.33.14.49.01.06.03.12.04.18v.02c.06.25.14.5.21.76.03.15.08.29.12.45.05.2.1.4.16.61.01.05.02.11.04.16.2.81.41 1.64.61 2.5.13.54.25 1.1.38 1.66 2.45 11 4.41 25.25 5.75 40.85.15 1.67.28 3.34.41 5.03.02.24.04.49.06.73.04.58.09 1.17.13 1.76.14 1.93.27 3.88.39 5.84.03.53.06 1.04.09 1.57.05.94.11 1.87.16 2.81.15 2.73.28 5.47.38 8.23 1.07 27.31.26 70.82-3.03 91.32h7.85c3.15-19.01 3.1-61.56 1.27-87.83-.04-.56-.08-1.12-.12-1.67-.48-6.63-1.07-13.17-1.75-19.49-.03-.26-.05-.52-.08-.78-.08-.75-.16-1.49-.25-2.22 0-.06-.01-.12-.02-.18-.1-.88-.2-1.75-.3-2.61-.01-.11-.03-.22-.04-.34-1.1-9.19-2.38-17.78-3.76-25.26-.11-.59-.22-1.18-.33-1.76-1.42-7.39-2.93-13.61-4.48-18.16-.06-.19-.13-.37-.18-.54-.25-.71-.5-1.38-.75-1.99-.05-.14-.11-.28-.17-.41-.21-.18-.42-.35-.61-.53-.12-.1-.23-.2-.34-.29l-.02-.02c-.06-.05-.1-.09-.15-.13-.07-.07-.13-.12-.19-.18-.16-.12-.3-.24-.44-.37-.09-.08-.17-.14-.25-.21-.03-.03-.07-.05-.09-.08-.09-.08-.18-.16-.26-.23-.29-.24-.56-.48-.85-.73Z"
    style="stroke-width:0" />
  <path d="M544.36 223.8H0s121.86-16.77 272.18-16.77 272.18 16.77 272.18 16.77Z"
    style="stroke-width:0" />
</svg>