<svg xmlns="http://www.w3.org/2000/svg" xmlns:xlink="http://www.w3.org/1999/xlink"
  class="svg u_1864949490" data-icon-custom="true" data-icon-name="element_04.svg" fill="#fd2dff"
  viewBox="0 0 631.16 631.16">
  <defs>
    <linearGradient id="a" x1="6.56" x2="624.6" y1="315.58" y2="315.58"
      gradientTransform="rotate(45 315.58299844 315.578758)" gradientUnits="userSpaceOnUse">
      <stop offset="0" stop-color="#00c0ff" />
      <stop offset=".04" stop-color="#00c2ff" />
      <stop offset=".68" stop-color="#0ef" />
      <stop offset="1" stop-color="#0ff" />
    </linearGradient>
    <linearGradient xlink:href="#a" id="b" x1="170.5" x2="460.66" y1="315.58" y2="315.58"
      gradientTransform="rotate(45 315.58299844 315.578758)" />
  </defs>
  <g style="isolation:isolate">
    <g style="opacity:.4">
      <circle cx="315.58" cy="315.58" r="315.58" style="stroke-width:0"
        transform="rotate(-45 315.578758 315.58299844)" />
      <circle cx="315.58" cy="315.58" r="309.02" style="stroke-width:0"
        transform="rotate(-45 315.578758 315.58299844)" />
      <circle cx="315.58" cy="315.58" r="302.46" style="stroke-width:0"
        transform="rotate(-45 315.578758 315.58299844)" />
      <circle cx="315.58" cy="315.58" r="295.91" style="stroke-width:0"
        transform="rotate(-45 315.578758 315.58299844)" />
      <circle cx="315.58" cy="315.58" r="289.35" style="stroke-width:0"
        transform="rotate(-45 315.578758 315.58299844)" />
      <circle cx="315.58" cy="315.58" r="282.79" style="stroke-width:0"
        transform="rotate(-45 315.578758 315.58299844)" />
      <circle cx="315.58" cy="315.58" r="276.23" style="stroke-width:0"
        transform="rotate(-45 315.578758 315.58299844)" />
      <circle cx="315.58" cy="315.58" r="269.68" style="stroke-width:0"
        transform="rotate(-45 315.578758 315.58299844)" />
      <circle cx="315.58" cy="315.58" r="263.12" style="stroke-width:0"
        transform="rotate(-45 315.578758 315.58299844)" />
      <circle cx="315.58" cy="315.58" r="256.56" style="stroke-width:0"
        transform="rotate(-45 315.578758 315.58299844)" />
      <circle cx="315.58" cy="315.58" r="250" style="stroke-width:0"
        transform="rotate(-45 315.578758 315.58299844)" />
      <circle cx="315.58" cy="315.58" r="243.44" style="stroke-width:0"
        transform="rotate(-45 315.578758 315.58299844)" />
      <circle cx="315.58" cy="315.58" r="236.89" style="stroke-width:0"
        transform="rotate(-45 315.578758 315.58299844)" />
      <circle cx="315.58" cy="315.58" r="230.33" style="stroke-width:0"
        transform="rotate(-45 315.578758 315.58299844)" />
      <circle cx="315.58" cy="315.58" r="223.77" style="stroke-width:0"
        transform="rotate(-45 315.578758 315.58299844)" />
      <circle cx="315.58" cy="315.58" r="217.21" style="stroke-width:0"
        transform="rotate(-45 315.578758 315.58299844)" />
      <circle cx="315.58" cy="315.58" r="210.66" style="stroke-width:0"
        transform="rotate(-45 315.578758 315.58299844)" />
      <circle cx="315.58" cy="315.58" r="204.1" style="stroke-width:0"
        transform="rotate(-45 315.578758 315.58299844)" />
      <circle cx="315.58" cy="315.58" r="197.54" style="stroke-width:0"
        transform="rotate(-45 315.578758 315.58299844)" />
      <circle cx="315.58" cy="315.58" r="190.98" style="stroke-width:0"
        transform="rotate(-45 315.578758 315.58299844)" />
      <circle cx="315.58" cy="315.58" r="184.43" style="stroke-width:0"
        transform="rotate(-45 315.578758 315.58299844)" />
      <circle cx="315.58" cy="315.58" r="177.87" style="stroke-width:0"
        transform="rotate(-45 315.578758 315.58299844)" />
      <circle cx="315.58" cy="315.58" r="171.31" style="stroke-width:0"
        transform="rotate(-45 315.578758 315.58299844)" />
      <circle cx="315.58" cy="315.58" r="164.75" style="stroke-width:0"
        transform="rotate(-45 315.578758 315.58299844)" />
      <circle cx="315.58" cy="315.58" r="158.19" style="stroke-width:0"
        transform="rotate(-45 315.578758 315.58299844)" />
      <circle cx="315.58" cy="315.58" r="151.64" style="stroke-width:0"
        transform="rotate(-45 315.578758 315.58299844)" />
      <circle cx="315.58" cy="315.58" r="145.08" style="fill:url(#b);opacity:.63"
        transform="rotate(-45 315.578758 315.58299844)" />
      <circle cx="315.58" cy="315.58" r="138.52" style="stroke-width:0"
        transform="rotate(-45 315.578758 315.58299844)" />
      <circle cx="315.58" cy="315.58" r="131.96" style="stroke-width:0"
        transform="rotate(-45 315.578758 315.58299844)" />
      <circle cx="315.58" cy="315.58" r="125.41" style="stroke-width:0"
        transform="rotate(-45 315.578758 315.58299844)" />
      <circle cx="315.58" cy="315.58" r="118.85" style="stroke-width:0"
        transform="rotate(-7.28 315.77918111 315.70466928)" />
      <circle cx="315.58" cy="315.58" r="112.29" style="stroke-width:0"
        transform="rotate(-7.1 315.3832555 315.3552807)" />
      <circle cx="315.58" cy="315.58" r="105.73" style="stroke-width:0"
        transform="rotate(-6.92 315.41769069 315.37720986)" />
      <circle cx="315.58" cy="315.58" r="99.17" style="stroke-width:0"
        transform="rotate(-6.75 315.3389224 315.35312263)" />
      <circle cx="315.58" cy="315.58" r="92.62" style="stroke-width:0"
        transform="rotate(-6.58 315.73521023 315.73155957)" />
      <circle cx="315.58" cy="315.58" r="86.06" style="stroke-width:0"
        transform="rotate(-6.43 315.52310728 315.519777)" />
      <circle cx="315.58" cy="315.58" r="79.5" style="stroke-width:0"
        transform="rotate(-6.28 315.63130416 315.61274313)" />
      <circle cx="315.58" cy="315.58" r="72.94" style="stroke-width:0"
        transform="rotate(-6.14 315.54265892 315.54474482)" />
      <circle cx="315.58" cy="315.58" r="66.39" style="stroke-width:0"
        transform="rotate(-6 315.79934427 315.7989778)" />
      <circle cx="315.58" cy="315.58" r="59.83" style="stroke-width:0"
        transform="rotate(-5.87 315.8661075 315.78866708)" />
      <circle cx="315.58" cy="315.58" r="53.27" style="stroke-width:0"
        transform="rotate(-5.75 315.62771044 315.58725217)" />
      <circle cx="315.58" cy="315.58" r="46.71" style="stroke-width:0"
        transform="rotate(-5.63 315.66042717 315.61095186)" />
    </g>
    <path
      d="M55.88 381.97h519.41c2.34-9.18 4.2-18.55 5.57-28.08H50.31c1.36 9.53 3.23 18.9 5.57 28.08Zm-8.2-73.49h535.8c-.25-9.45-.98-18.78-2.18-27.96H49.86c-1.2 9.18-1.94 18.51-2.18 27.96Zm-.09 7.1c0 9.35.48 18.58 1.41 27.68h533.16c.93-9.1 1.41-18.34 1.41-27.68v-.39H47.59v.39ZM70.7 424.61h489.76c4.06-9.1 7.63-18.47 10.67-28.08H60.04c3.04 9.61 6.61 18.98 10.67 28.08Zm244.88 158.96c48.4 0 93.81-12.83 133-35.28h-266c39.19 22.45 84.6 35.28 133 35.28Zm-172.42-62.82h344.85c10.26-8.63 19.86-18.02 28.73-28.08H114.43c8.86 10.06 18.46 19.45 28.73 28.08Zm-45.59-49.29H533.6c6.6-9.22 12.64-18.87 18.05-28.91H79.52c5.41 10.04 11.44 19.69 18.05 28.91ZM315.58 47.59c-123.64 0-227.72 83.73-258.65 197.57h517.29C543.3 131.31 439.21 47.59 315.58 47.59ZM56.14 248.14c-2.37 9.14-4.26 18.47-5.67 27.96h530.2c-1.4-9.49-3.3-18.82-5.67-27.96H56.14Z"
      style="stroke-width:0" />
    <g style="mix-blend-mode:screen;opacity:.1">
      <path
        d="M283.14 68.91c-7.97 1.03-15.83 2.43-23.55 4.19h111.98c-7.72-1.76-15.58-3.16-23.55-4.19h-64.88Zm-53.13 12.87c-3.63 1.32-7.22 2.71-10.77 4.19h192.68c-3.55-1.48-7.14-2.87-10.77-4.19H230.02Zm-29.46 12.87c-2.62 1.35-5.21 2.75-7.78 4.19h245.62c-2.57-1.44-5.16-2.84-7.78-4.19H200.55Zm-22.11 12.87c-2.09 1.37-4.17 2.76-6.22 4.19h286.7c-2.05-1.43-4.12-2.82-6.22-4.19H178.44Zm-17.96 12.88c-1.75 1.37-3.47 2.77-5.18 4.19h320.56c-1.71-1.42-3.44-2.81-5.18-4.19h-310.2Zm-15.11 12.87c-1.5 1.38-2.97 2.77-4.44 4.19h349.29c-1.46-1.41-2.94-2.81-4.44-4.19H145.37Zm-12.99 12.87c-1.3 1.38-2.58 2.78-3.84 4.19h374.1c-1.27-1.41-2.55-2.81-3.84-4.19H132.38Zm-11.3 12.87c-1.13 1.38-2.25 2.78-3.36 4.19h395.71c-1.1-1.41-2.22-2.8-3.36-4.19H121.08Zm-9.86 12.88c-.99 1.39-1.97 2.78-2.94 4.19h414.6c-.97-1.41-1.94-2.8-2.94-4.19H111.22Zm-8.64 12.87c-.87 1.39-1.72 2.78-2.57 4.19h431.14c-.84-1.4-1.7-2.8-2.57-4.19h-426Zm-7.55 12.87c-.76 1.39-1.51 2.78-2.24 4.19h445.59c-.73-1.4-1.48-2.8-2.24-4.19H95.03Zm-6.57 12.87c-.66 1.39-1.31 2.78-1.95 4.19h458.13c-.63-1.4-1.29-2.8-1.95-4.19H88.46Zm-5.67 12.88c-.57 1.39-1.12 2.79-1.66 4.19h468.91c-.54-1.4-1.09-2.8-1.66-4.19H82.79Zm-4.83 12.87c-.48 1.39-.95 2.79-1.41 4.19h478.06c-.46-1.4-.93-2.8-1.41-4.19H77.96Zm-4.05 12.87c-.4 1.39-.78 2.79-1.15 4.19h485.65c-.37-1.4-.75-2.8-1.15-4.19H73.91ZM70.61 262c-.32 1.39-.62 2.79-.92 4.19h491.77c-.29-1.4-.6-2.8-.92-4.19H70.61Zm-2.58 12.87c-.24 1.39-.47 2.79-.69 4.19h496.48c-.22-1.4-.45-2.8-.69-4.19H68.03Zm-1.89 12.87c-.17 1.39-.33 2.79-.47 4.19h499.82c-.15-1.4-.3-2.79-.47-4.19H66.14Zm-1.22 12.87c-.1 1.39-.18 2.79-.26 4.19h501.82c-.07-1.4-.16-2.79-.26-4.19H64.92Zm-.55 12.88c-.03 1.39-.04 2.79-.04 4.19h502.51c0-1.4-.02-2.79-.04-4.19H64.37Zm.09 12.87c.05 1.4.1 2.8.17 4.19h501.9c.07-1.39.12-2.79.17-4.19H64.46Zm.74 12.87c.12 1.4.24 2.8.38 4.19h499.99c.14-1.39.26-2.79.38-4.19H65.2Zm1.41 12.87c.19 1.4.39 2.8.6 4.19h496.74c.21-1.39.41-2.79.6-4.19H66.61Zm2.08 12.88c.26 1.4.54 2.8.83 4.19h492.12c.29-1.39.56-2.79.83-4.19H68.69Zm2.78 12.87c.34 1.4.7 2.8 1.06 4.19h486.09c.37-1.39.72-2.79 1.06-4.19H71.47Zm3.51 12.87c.42 1.4.86 2.8 1.3 4.19h478.59c.45-1.39.88-2.79 1.3-4.19H74.98Zm4.27 12.87c.51 1.4 1.02 2.8 1.56 4.19h469.55c.53-1.39 1.05-2.79 1.56-4.19H79.25Zm5.07 12.88c.6 1.4 1.21 2.8 1.83 4.19h458.87c.62-1.39 1.23-2.79 1.83-4.19H84.32Zm5.91 12.87c.69 1.4 1.4 2.8 2.12 4.19H538.8c.72-1.39 1.43-2.78 2.12-4.19H90.23Zm6.85 12.87c.8 1.4 1.61 2.8 2.44 4.19h432.13c.83-1.39 1.64-2.78 2.44-4.19H97.08Zm7.85 12.87c.92 1.41 1.85 2.8 2.79 4.19h415.73c.94-1.39 1.87-2.78 2.79-4.19H104.93Zm8.97 12.88c1.05 1.41 2.11 2.8 3.19 4.19h396.99c1.08-1.38 2.14-2.78 3.19-4.19H113.9Zm10.25 12.87c1.2 1.41 2.41 2.81 3.64 4.19h375.58c1.23-1.38 2.44-2.78 3.64-4.19H124.15Zm371.12 12.87H135.89c1.38 1.41 2.78 2.81 4.19 4.19h351.01c1.41-1.38 2.81-2.78 4.19-4.19Zm-345.83 12.87c1.61 1.42 3.23 2.81 4.87 4.19h322.54c1.64-1.38 3.27-2.77 4.87-4.19H149.44Zm15.83 12.88c1.9 1.42 3.83 2.82 5.78 4.19h289.06c1.95-1.37 3.87-2.76 5.78-4.19H165.27Zm18.97 12.87c2.33 1.43 4.69 2.83 7.07 4.19h248.54c2.38-1.36 4.74-2.75 7.07-4.19H184.24Zm23.72 12.87c3.07 1.46 6.17 2.85 9.3 4.19h196.62c3.13-1.33 6.24-2.73 9.3-4.19H207.95Zm32.96 12.88c4.98 1.55 10.04 2.95 15.15 4.19H375.1c5.11-1.24 10.16-2.64 15.15-4.19H240.92Z"
        style="stroke-width:0" />
    </g>
  </g>
</svg>